<svg width="10" height="8" viewBox="0 0 10 8" fill="none" xmlns="http://www.w3.org/2000/svg">
<mask id="path-1-inside-1_201_11315" fill="white">
<path d="M9.12892 2.45183C9.09208 2.50094 9.05115 2.54597 9.01022 2.5869C7.54087 4.05625 6.06742 5.5297 4.59807 6.99905C4.2911 7.30602 3.92683 7.41243 3.51754 7.26509C3.3702 7.21188 3.22695 7.11365 3.11234 7.00314C2.36334 6.26642 1.62252 5.5256 0.885802 4.78069C0.366002 4.25271 0.484697 3.45459 1.13138 3.13535C1.50383 2.95526 1.87219 2.988 2.18735 3.25404C2.45339 3.47915 2.69077 3.737 2.93635 3.98258C3.23922 4.28136 3.53657 4.53629 3.87628 4.876C3.93764 4.82231 3.92683 4.82162 3.96367 4.78888C5.16289 3.58557 6.36621 2.38634 7.56543 1.18303C7.93788 0.810574 8.40447 0.732809 8.83423 0.97429C9.35403 1.26489 9.50137 1.98524 9.12892 2.45183Z"/>
</mask>
<path d="M9.12892 2.45183C9.09208 2.50094 9.05115 2.54597 9.01022 2.5869C7.54087 4.05625 6.06742 5.5297 4.59807 6.99905C4.2911 7.30602 3.92683 7.41243 3.51754 7.26509C3.3702 7.21188 3.22695 7.11365 3.11234 7.00314C2.36334 6.26642 1.62252 5.5256 0.885802 4.78069C0.366002 4.25271 0.484697 3.45459 1.13138 3.13535C1.50383 2.95526 1.87219 2.988 2.18735 3.25404C2.45339 3.47915 2.69077 3.737 2.93635 3.98258C3.23922 4.28136 3.53657 4.53629 3.87628 4.876C3.93764 4.82231 3.92683 4.82162 3.96367 4.78888C5.16289 3.58557 6.36621 2.38634 7.56543 1.18303C7.93788 0.810574 8.40447 0.732809 8.83423 0.97429C9.35403 1.26489 9.50137 1.98524 9.12892 2.45183Z" fill="#423C3C" stroke="#EAEAEA" stroke-width="0.600002" stroke-linejoin="round" mask="url(#path-1-inside-1_201_11315)"/>
</svg>
