<svg width="10" height="8" viewBox="0 0 10 8" fill="none" xmlns="http://www.w3.org/2000/svg">
<mask id="path-1-inside-1_201_11412" fill="white">
<path d="M9.167 2.2235C9.13017 2.27261 9.08924 2.31763 9.04831 2.35856C7.57896 3.82792 6.10551 5.30136 4.63615 6.77072C4.32919 7.07769 3.96492 7.1841 3.55563 7.03676C3.40828 6.98355 3.26503 6.88532 3.15043 6.77481C2.40143 6.03809 1.66061 5.29727 0.923888 4.55236C0.404088 4.02438 0.522783 3.22626 1.16946 2.90701C1.54192 2.72692 1.91028 2.75967 2.22543 3.02571C2.49147 3.25082 2.72886 3.50867 2.97443 3.75424C3.27731 4.05303 3.57466 4.30796 3.91437 4.64767C3.97573 4.59398 3.96492 4.59329 4.00175 4.56055C5.20098 3.35723 6.40429 2.15801 7.60351 0.954696C7.97597 0.582242 8.44256 0.504476 8.87231 0.745958C9.39211 1.03655 9.53946 1.75691 9.167 2.2235Z"/>
</mask>
<path d="M9.167 2.2235C9.13017 2.27261 9.08924 2.31763 9.04831 2.35856C7.57896 3.82792 6.10551 5.30136 4.63615 6.77072C4.32919 7.07769 3.96492 7.1841 3.55563 7.03676C3.40828 6.98355 3.26503 6.88532 3.15043 6.77481C2.40143 6.03809 1.66061 5.29727 0.923888 4.55236C0.404088 4.02438 0.522783 3.22626 1.16946 2.90701C1.54192 2.72692 1.91028 2.75967 2.22543 3.02571C2.49147 3.25082 2.72886 3.50867 2.97443 3.75424C3.27731 4.05303 3.57466 4.30796 3.91437 4.64767C3.97573 4.59398 3.96492 4.59329 4.00175 4.56055C5.20098 3.35723 6.40429 2.15801 7.60351 0.954696C7.97597 0.582242 8.44256 0.504476 8.87231 0.745958C9.39211 1.03655 9.53946 1.75691 9.167 2.2235Z" fill="#F2F2F2" stroke="#2C2929" stroke-width="0.600002" stroke-linejoin="round" mask="url(#path-1-inside-1_201_11412)"/>
</svg>
