<svg width="28" height="24" viewBox="0 0 28 24" fill="none" xmlns="http://www.w3.org/2000/svg">
<mask id="path-1-inside-1_201_11563" fill="white">
<path d="M26.1951 12.2011C25.2773 13.7719 24.4528 14.6386 23.2083 15.9619C20.9914 18.3143 18.5724 20.45 15.92 22.3072C15.5155 22.5935 15.0799 22.8334 14.6521 23.0733C14.061 23.3983 13.4698 23.3828 12.8709 23.0655C11.7041 22.4465 10.6696 21.6495 9.65066 20.8292C7.11493 18.8018 4.73477 16.6119 2.70463 14.0737C2.09014 13.3077 1.93457 13.0755 1.40565 12.2398C0.324461 10.5296 -0.181129 8.0921 0.324461 6.18076C1.11785 3.17833 3.41245 1.18187 6.50044 0.702098C9.2773 0.276496 11.4863 1.14318 13.4465 3.04678V3.04678C13.6112 3.19424 13.8592 3.21106 14.0182 3.05753C14.8092 2.29397 15.6405 1.7 16.5889 1.25925C21.1703 -0.884237 26.6074 2.00212 27.3852 6.96231C27.6497 8.65698 27.0585 10.7308 26.1951 12.2011Z"/>
</mask>
<path d="M26.1951 12.2011C25.2773 13.7719 24.4528 14.6386 23.2083 15.9619C20.9914 18.3143 18.5724 20.45 15.92 22.3072C15.5155 22.5935 15.0799 22.8334 14.6521 23.0733C14.061 23.3983 13.4698 23.3828 12.8709 23.0655C11.7041 22.4465 10.6696 21.6495 9.65066 20.8292C7.11493 18.8018 4.73477 16.6119 2.70463 14.0737C2.09014 13.3077 1.93457 13.0755 1.40565 12.2398C0.324461 10.5296 -0.181129 8.0921 0.324461 6.18076C1.11785 3.17833 3.41245 1.18187 6.50044 0.702098C9.2773 0.276496 11.4863 1.14318 13.4465 3.04678V3.04678C13.6112 3.19424 13.8592 3.21106 14.0182 3.05753C14.8092 2.29397 15.6405 1.7 16.5889 1.25925C21.1703 -0.884237 26.6074 2.00212 27.3852 6.96231C27.6497 8.65698 27.0585 10.7308 26.1951 12.2011Z" fill="none" fill-opacity="0.39" stroke="#474244" stroke-width="2" mask="url(#path-1-inside-1_201_11563)"/>
</svg>
