<svg width="28" height="24" viewBox="0 0 28 24" fill="none" xmlns="http://www.w3.org/2000/svg">
<path d="M26.2127 12.201C25.2949 13.7718 24.4704 14.6385 23.2258 15.9617C21.009 18.3142 18.59 20.4499 15.9376 22.3071C15.5331 22.5934 15.0975 22.8333 14.6697 23.0732C14.0785 23.3982 13.4874 23.3827 12.8885 23.0654C11.7217 22.4464 10.6872 21.6493 9.66824 20.8291C7.13251 18.8017 4.75234 16.6117 2.7222 14.0736C2.10772 13.3075 1.95215 13.0754 1.42323 12.2397C0.342039 10.5295 -0.163551 8.09197 0.34204 6.18063C1.13543 3.17821 3.43003 1.18174 6.51802 0.701975C9.29488 0.276374 11.5039 1.14305 13.4641 3.04666C13.6288 3.19411 13.8767 3.21094 14.0358 3.05741C14.8268 2.29385 15.6581 1.69988 16.6065 1.25913C21.1879 -0.884359 26.625 2.002 27.4028 6.96219C27.6673 8.65686 27.0761 10.7307 26.2127 12.201Z" fill="#EB2A2A"/>
</svg>
